<?xml version="1.0" standalone="no"?>
<svg viewBox="0 0 1024 1024" xmlns="http://www.w3.org/2000/svg">
  <path d="M512 64C264.6 64 64 264.6 64 512s200.6 448 448 448 448-200.6 448-448S759.4 64 512 64z m265.9 713.9a377.2 377.2 0 0 1-119.6 80.6 377.5 377.5 0 0 1-292.6 0 377.1 377.1 0 0 1-200.2-200.2 377.5 377.5 0 0 1 0-292.6 377.1 377.1 0 0 1 200.2-200.2 377.5 377.5 0 0 1 292.6 0 377.1 377.1 0 0 1 200.2 200.2 377.5 377.5 0 0 1 0 292.6 377.2 377.2 0 0 1-80.6 119.6z m-79.6-407.1l-45.1-45.1a4 4 0 0 0-5.7 0L512 461.2 376.5 325.7a4 4 0 0 0-5.7 0l-45.1 45.1a4 4 0 0 0 0 5.7L461.2 512 325.7 647.5a4 4 0 0 0 0 5.7l45.1 45.1a4 4 0 0 0 5.7 0L512 562.8l135.5 135.5a4 4 0 0 0 5.7 0l45.1-45.1a4 4 0 0 0 0-5.7L562.8 512l135.5-135.5a4 4 0 0 0 0-5.7z" fill="currentColor"/>
</svg>
