<?xml version="1.0" standalone="no"?>
<svg viewBox="0 0 1024 1024" xmlns="http://www.w3.org/2000/svg">
  <path d="M958.681412 457.499032c-6.170072-50.632177-20.854483-99.563886-43.643361-145.434552-45.779694-92.144205-122.249797-166.333021-215.325711-208.898719-20.083724-9.18513-43.810309-0.349891-52.995439 19.734833-9.18413 20.082724-0.349891 43.810309 19.733833 52.996438 159.26323 72.834239 245.755201 249.640987 205.658732 420.410622-30.735395 130.876101-129.201624 233.321087-256.187941 270.333521l-0.262918-70.800875-196.843487 114.650172 197.690222 113.176632-0.275914-74.43274c75.398438-17.911403 144.809747-54.929834 202.084849-108.039237 65.597501-60.827991 111.122274-139.186504 131.651859-226.606186 12.170197-51.828803 15.10328-104.683286 8.715276-157.089909zM408.299406-0.001l0.271915 74.43374c-75.404436 17.911403-144.820744 54.931834-202.099843 108.046235-65.6005 60.83099-111.124274 139.191503-131.651859 226.616183-7.987504 34.034364-11.994252 68.507591-11.994252 103.010809 0 17.994377 1.090659 35.996751 3.271978 53.946142 6.152077 50.59119 20.803499 99.48891 43.545392 145.333583 45.678725 92.080225 122.012871 166.270041 214.936832 208.900718 20.071728 9.209122 43.810309 0.401874 53.018432-19.670852 9.210122-20.076726 0.400875-43.810309-19.671853-53.019432-158.963324-72.92821-245.278351-249.658982-205.24886-420.22368 30.732396-130.883099 129.201624-233.333083 256.195939-270.345517l0.259919 70.801874 196.850484-114.640174L408.299406-0.001z" fill="currentColor"/>
</svg>
