<?xml version="1.0" standalone="no"?><!DOCTYPE svg PUBLIC "-//W3C//DTD SVG 1.1//EN" "http://www.w3.org/Graphics/SVG/1.1/DTD/svg11.dtd"><svg class="icon" width="200px" height="200.00px" viewBox="0 0 1024 1024" version="1.1" xmlns="http://www.w3.org/2000/svg"><path fill="#000000" d="M654.08 137.386667c-90.026667-69.12-193.706667-69.546667-284.586667 0-38.826667 30.72-73.386667 71.253333-101.973333 121.173333-55.893333 94.72-89.173333 217.173333-89.173333 327.253333 0 56.32 8.533333 107.52 25.173333 152.32 16.64 43.946667 40.96 82.346667 73.386667 113.493334C336.213333 908.373333 417.28 938.666667 512 938.666667c94.72 0 175.786667-30.293333 235.52-87.466667 32-30.72 56.32-69.12 72.96-113.066667 16.64-44.8 25.173333-96 25.173333-152.32 0-110.08-33.28-232.533333-88.746666-327.253333-29.013333-49.92-63.573333-90.453333-102.826667-121.173333z"  /></svg>