<?xml version="1.0" standalone="no"?><!DOCTYPE svg PUBLIC "-//W3C//DTD SVG 1.1//EN" "http://www.w3.org/Graphics/SVG/1.1/DTD/svg11.dtd"><svg class="icon" width="200px" height="200.00px" viewBox="0 0 1024 1024" version="1.1" xmlns="http://www.w3.org/2000/svg"><path fill="#000000" d="M566.016 115.456H810.666667a42.666667 42.666667 0 0 1 42.666666 42.666667v248.874666c9.365333-1.941333 18.901333-2.922667 28.437334-2.922666 78.549333 0 142.229333 64.618667 142.229333 144.32 0 79.701333-63.68 144.32-142.229333 144.32-9.536 0-19.072-0.981333-28.437334-2.922667V938.666667a42.666667 42.666667 0 0 1-42.666666 42.666666H566.016c1.92-9.493333 2.88-19.157333 2.88-28.864 0-79.701333-63.68-144.32-142.229333-144.32s-142.229333 64.618667-142.229334 144.32c0 9.706667 0.96 19.370667 2.88 28.864H42.666667a42.666667 42.666667 0 0 1-42.666667-42.666666V689.792c9.365333 1.92 18.901333 2.922667 28.437333 2.922667C106.986667 692.693333 170.666667 628.053333 170.666667 548.394667c0-79.701333-63.68-144.32-142.229334-144.32-9.536 0-19.072 0.981333-28.437333 2.922666V158.122667a42.666667 42.666667 0 0 1 42.666667-42.666667h244.650666C300.8 48.298667 359.125333 0 426.666667 0s125.845333 48.298667 139.349333 115.456z"  /></svg>