<?xml version="1.0" standalone="no"?><!DOCTYPE svg PUBLIC "-//W3C//DTD SVG 1.1//EN" "http://www.w3.org/Graphics/SVG/1.1/DTD/svg11.dtd"><svg class="icon" width="200px" height="200.00px" viewBox="0 0 1024 1024" version="1.1" xmlns="http://www.w3.org/2000/svg"><path fill="#000000" d="M602.493023 610.431008s37.308527 81.76124 77.792248 169.872868c44.452713 102.4 40.483721 79.379845 40.483721 79.379845l0.793799 1.587597c3.968992 8.731783-1.587597 10.31938-10.31938 14.288372s-16.669767 9.525581-21.432558 1.587597c0 0 8.731783 14.288372-47.627907-84.936434C593.76124 690.604651 557.246512 613.606202 557.246512 613.606202l-4.762791-10.31938c-10.31938-21.432558 7.937984-7.937984 26.195349-23.813954 4.762791-3.968992 8.731783-3.175194 19.051163 17.463566 0 2.381395 4.762791 11.906977 4.76279 13.494574zM302.437209 407.218605s-10.31938 28.576744 19.844962 30.958139c7.144186 1.587597 32.545736 6.350388 42.071317 5.556589 40.483721-5.556589 80.967442-16.669767 123.832559-26.195349 41.277519-11.113178 76.204651-24.607752 114.306976-43.658914 19.051163-8.731783 30.95814-19.844961 46.04031-31.751938 7.144186-6.350388 9.525581-20.63876 9.525582-20.63876-4.762791-7.144186-18.257364-10.31938-9.525582-18.257364 0 0 17.463566 3.175194 23.813954 5.556589 0 0 14.288372 11.906977 3.175194 34.927132-11.113178 11.113178-42.071318 41.277519-63.503876 48.421705-42.071318 13.494574-80.967442 35.72093-123.03876 46.04031-42.071318 9.525581-55.565891 7.937984-100.018605 21.432558-11.906977 2.381395-51.596899 0.793798-65.885271 1.587597-61.122481 3.175194-37.308527-49.215504-31.751938-53.184496 6.350388-5.556589 14.288372-3.175194 11.113178-0.793798z"  /><path fill="#000000" d="M659.646512 469.134884c10.31938-25.40155 17.463566-53.978295 15.875969-80.967442-0.793798-6.350388-1.587597-14.288372-4.762791-19.051163-2.381395-3.175194-9.525581-0.793798-9.525581-0.793798-18.257364 20.63876-34.927132 35.72093-54.772093 42.865116-38.896124 14.288372-56.35969 29.370543-95.255814 41.277519-38.102326 11.113178-57.947287 11.113178-98.431008 24.607752-15.875969 5.556589-42.865116 7.144186-62.710078 7.144186 0.793798 0.793798-0.793798 6.350388 3.968993 10.31938l22.226356 22.226357c17.463566 23.020155 58.741085 46.04031 111.131783 43.658914 76.204651-3.175194 150.027907-38.896124 172.254264-91.286821zM375.466667 423.094574c34.927132-4.762791 78.586047-15.875969 115.100775-24.607752C526.288372 388.96124 550.896124 373.085271 583.44186 357.209302c16.669767-7.937984 25.40155-13.494574 39.689923-23.020155 9.525581-6.350388 11.113178-11.113178 13.494574-12.700775-1.587597-11.906977-7.937984-23.020155-11.906977-30.958139-11.113178-24.607752-34.133333-36.514729-63.503876-57.153489-15.875969-11.113178-53.978295-18.257364-77.792248-18.257364-24.607752 0-63.503876 11.113178-83.348837 25.40155-20.63876 15.082171-41.277519 24.607752-54.772093 46.04031-5.556589 8.731783-13.494574 31.751938-19.051163 42.071318-9.525581 17.463566-7.937984 57.947287-7.937985 70.648062 0 2.381395 0.793798 3.968992 0.793799 6.350388 0.793798 3.175194 6.350388 11.113178 6.350387 11.113178 8.731783 3.175194 12.700775 7.144186 19.051163 7.144186 6.350388 1.587597 23.020155-0.793798 30.95814-0.793798z"  /></svg>