<?xml version="1.0" standalone="no"?><!DOCTYPE svg PUBLIC "-//W3C//DTD SVG 1.1//EN" "http://www.w3.org/Graphics/SVG/1.1/DTD/svg11.dtd"><svg class="icon" width="200px" height="200.00px" viewBox="0 0 1024 1024" version="1.1" xmlns="http://www.w3.org/2000/svg"><path fill="#000000" d="M909.789737 353.587482c0-60.121005-40.724668-112.485659-99.035931-127.374013a126.828252 126.828252 0 0 0-9.085825-2.023681 133.087036 133.087036 0 0 0-8.889351-1.366585l-6.228222-0.692024-1.436442-6.086324C754.981423 88.849852 642.674773 0 512 0c-130.657309 0-242.963958 88.849852-273.113966 216.064502l-1.436442 6.086324-6.228222 0.692025c-2.999501 0.336189-5.961891 0.833922-8.908999 1.366585a131.200887 131.200887 0 0 0-9.085825 2.023681c-58.291615 14.888354-99.016283 67.253007-99.016283 127.374012 0 50.253651 28.621877 95.55616 72.77174 117.613627-2.290012-15.811781 1.189758-28.126327 4.062643-35.046573 3.833424-9.262652 13.7881-26.368977 37.336585-36.786458a96.955491 96.955491 0 0 1 9.245187-3.407731c2.944925-0.940892 6.175829-1.685309 9.47659-2.412262a133.244215 133.244215 0 0 1 29.261509-3.176328h471.218573c10.044181 0 19.359226 1.010749 29.261509 3.176328 3.33569 0.726953 6.566593 1.473554 9.494054 2.412262 3.265832 1.028213 6.387584 2.148114 9.245187 3.390266 23.56595 10.415298 33.53809 27.521624 37.35405 36.786459 2.857603 6.920246 6.335191 19.234792 4.062643 35.046573 44.149862-22.042186 72.789204-67.362159 72.789204-117.61581z m-269.581802-108.6697c-17.016821-58.664916-62.408835-91.174793-121.606413-99.424512-19.199864-2.678594-29.403407-26.866711-24.790637-43.652129 5.625702-20.442015 24.506841-27.451766 43.652129-24.790637 83.206686 11.605057 147.850956 68.602128 171.185503 149.005786 12.794815 44.04071-55.700343 62.725376-68.440582 18.861492zM675.448799 744.529013l-163.448799-89.880248-163.450982 89.880248 14.320763 36.022393 149.130219 82.016927 149.145501-82.016927zM512 1023.995634c22.714563 0 45.409478-8.660132 62.747206-25.978212l19.715062-49.596555-82.442621-45.339621-82.44262 45.339621 19.715062 49.596555c17.298433 17.31808 40.010813 25.978212 62.707911 25.978212zM640.544123 832.383397l-91.722736 50.43266 58.841742 32.348332zM416.354335 915.164389l58.824278-32.348332-91.72492-50.43266zM335.348157 711.292182l139.830456-76.906423-218.016143-119.886175zM766.835347 514.499584l-218.01396 119.886175 139.830456 76.906423z"  /><path fill="#000000" d="M775.35358 439.029603c-2.661129-1.010749-5.625702-1.844671-8.854422-2.501767a78.868979 78.868979 0 0 0-9.40455-1.366585 114.018155 114.018155 0 0 0-9.494054-0.408229H276.381981c-3.353154 0-6.494553 0.159362-9.494054 0.408229-3.390266 0.283796-6.477089 0.781529-9.404549 1.366585-3.228721 0.657096-6.193293 1.491018-8.854423 2.501767-11.107323 4.204541-17.230759 11.303797-17.992641 20.372158l53.253152 29.296438 3.833424 2.111002 29.687202 16.324796 108.866174 59.872139 29.333549 16.130505 56.374904 31.001394 56.374903-31.001394 29.33355-16.130505 108.866173-59.872139 29.687202-16.324796 3.833424-2.111002 53.270616-29.296438c-0.766248-9.068361-6.870036-16.165434-17.997007-20.372158z"  /></svg>