<?xml version="1.0" standalone="no"?><!DOCTYPE svg PUBLIC "-//W3C//DTD SVG 1.1//EN" "http://www.w3.org/Graphics/SVG/1.1/DTD/svg11.dtd"><svg class="icon" width="200px" height="200.00px" viewBox="0 0 1024 1024" version="1.1" xmlns="http://www.w3.org/2000/svg"><path fill="#000000" d="M224.500593 1015.536646c41.254591 9.255742 192.369049 33.684236 256.736294-86.106382a521.245873 521.245873 0 0 0 20.696719-43.14718c-23.388211-43.288163-28.910042-79.490866-28.07696-109.667618-10.400694 3.751-22.486775 1.337202-29.11938-11.477291-15.505984-29.952461-37.939356-49.677252-68.793254-63.012954-13.04092-5.6265-15.852033-24.51821-9.341186-35.630227 7.813871-13.335702 22.606397-14.967686 35.630227-9.341186 32.434615 13.995758 59.106018 36.672646 78.117351 65.824068l0.034178-0.209339c2.640225-15.7495 9.533436-32.522195 19.359517-48.530164l-0.954839-1.96308c-22.64271-47.229276-94.266303-87.755455-143.492836-74.906785-4.532814 1.181266-8.386347 2.082702-12.259106 3.003363 32.816977-193.306799 117.759183-356.037396 263.022851-474.215255-66.345277 142.693933-33.805994 320.304635 22.764468 469.682441 11.564871-0.625879 19.846549-1.493137 25.524316-2.343307 4.861774-5.190735 12.10317-13.769331 21.912162-26.895695-63.324825-169.589628-93.606246-381.145171 51.796268-513.543079 1.02533-0.93775 1.78792-1.943855 2.621001-2.917919 25.385469-9.272831-29.518832-53.601277-36.25397-49.920768C462.919789 126.786767 329.464509 336.571479 288.000579 594.350192a465.232934 465.232934 0 0 1-20.228912-14.828839c-40.265575-31.097413-122.048481-21.826718-161.359216 12.763226-39.223155 34.500228-99.371593 80.1851-84.474399 243.505261 12.346685 135.469627 161.013168 172.10596 202.562541 179.746806z"  /><path fill="#000000" d="M1001.083612 750.170489c-31.080324-161.047346-101.558964-188.186556-148.822418-210.444768-15.228291-7.170904-33.944841-10.610032-53.323583-10.610032-40.925631 0-84.837536 15.33296-105.222384 43.183493a556.448879 556.448879 0 0 1-10.088823 13.36988c-9.411678 12.066856-16.148952 19.464186-20.784299 23.979912-5.765347 1.127863-14.551146 2.326218-27.521574 3.195613a513.797276 513.797276 0 0 1-20.750121 0.93775c-40.336066 1.059508-84.803359 38.321719-105.79486 79.454552-5.470564 10.712565-9.445855 21.687872-11.216686 32.366259-5.748258 34.414784-15.367138 78.674874 12.902073 139.133047 14.064114 30.074219 37.330567 64.070326 75.445083 103.017924 38.234139 39.050131 83.449068 51.847535 126.267288 51.847535 63.741366 0 122.15315-28.320477 144.308829-40.492002 37.798374-18.893847 170.386395-95.415527 144.601475-228.939163z m-128.02103-68.968414c-24.691235-35.057751-61.744108-51.796268-103.712158-40.126728-32.417526 9.029315-46.169768-41.237502-13.856911-50.232639 65.651043-18.265832 124.408877 9.913662 162.540482 64.053237 19.395831 27.555751-25.802009 53.532921-44.971413 26.30613z"  /></svg>