<?xml version="1.0" standalone="no"?><!DOCTYPE svg PUBLIC "-//W3C//DTD SVG 1.1//EN" "http://www.w3.org/Graphics/SVG/1.1/DTD/svg11.dtd"><svg class="icon" width="200px" height="200.00px" viewBox="0 0 1024 1024" version="1.1" xmlns="http://www.w3.org/2000/svg"><path fill="#000000" d="M503.466667 273.066667h-2.133334c-8.533333-2.133333-14.933333-10.666667-14.933333-19.2 4.266667-29.866667 29.866667-183.466667 98.133333-189.866667 8.533333 0 17.066667 6.4 17.066667 14.933333 0 8.533333-6.4 17.066667-14.933333 17.066667-29.866667 2.133333-59.733333 98.133333-68.266667 160 0 10.666667-6.4 17.066667-14.933333 17.066667z"  /><path fill="#000000" d="M727.466667 484.266667c-6.4-27.733333-57.6-221.866667-198.4-221.866667h-51.2c-38.4-2.133333-130.133333 10.666667-181.333334 194.133333-8.533333 29.866667-19.2 59.733333-29.866666 87.466667-42.666667 115.2-85.333333 234.666667 36.266666 347.733333 55.466667 51.2 128 68.266667 198.4 68.266667 46.933333 0 91.733333-8.533333 130.133334-19.2 76.8-23.466667 128-68.266667 153.6-132.266667 32-89.6 10.666667-209.066667-57.6-324.266666z m-155.733334-115.2c-2.133333 2.133333-6.4 4.266667-10.666666 4.266666s-10.666667-2.133333-12.8-6.4l-17.066667-21.333333c-6.4-6.4-4.266667-17.066667 4.266667-23.466667 6.4-6.4 17.066667-4.266667 23.466666 4.266667l17.066667 21.333333c4.266667 4.266667 4.266667 14.933333-4.266667 21.333334z m66.133334 512c-2.133333 2.133333-6.4 2.133333-8.533334 2.133333-6.4 0-10.666667-2.133333-14.933333-8.533333-4.266667-8.533333-2.133333-17.066667 6.4-23.466667 83.2-49.066667 59.733333-130.133333 59.733333-130.133333-2.133333-8.533333 2.133333-17.066667 10.666667-21.333334 8.533333-2.133333 17.066667 2.133333 21.333333 10.666667 10.666667 38.4 8.533333 121.6-74.666666 170.666667z"  /></svg>