<?xml version="1.0" standalone="no"?><!DOCTYPE svg PUBLIC "-//W3C//DTD SVG 1.1//EN" "http://www.w3.org/Graphics/SVG/1.1/DTD/svg11.dtd"><svg class="icon" width="200px" height="200.00px" viewBox="0 0 1024 1024" version="1.1" xmlns="http://www.w3.org/2000/svg"><path fill="#000000" d="M650.818153 42.003267S488.978105 95.048493 508.02094 216.082466c19.042835 121.039317 163.197578 25.841175 142.797213-174.079199z"  /><path fill="#000000" d="M331.151857 100.296897S499.720765 76.021692 536.363392 192.940317c36.642626 116.918625-134.780302 95.56692-205.211535-92.64342z"  /><path fill="#000000" d="M894.660508 434.933438c-7.359524-161.957629-165.640064-193.244959-182.197657-193.24496-16.568282 0-110.424928-3.682434-126.987865-3.682434H498.97252c-16.568282 0-29.443441 5.520979-46.011722-3.682434-16.562937-9.198069-27.604896-1.8332-33.125875-9.198069-5.520979-7.359524-23.927806-16.562937-23.927806-16.562938s-265.017688 9.203413-266.856234 215.328876c-1.843889 206.125463 246.616206 502.435826 342.316741 544.765114s126.987865-29.448785 132.508845-31.28733c5.520979-1.838545 301.825998-255.81962 290.784039-502.435825zM331.151857 559.23831a36.038686 36.038686 0 1 1 72.077371 0 36.038686 36.038686 0 0 1-72.077371 0z m65.16145 167.334304a30.175652 30.175652 0 1 1 0-60.356648 30.175652 30.175652 0 0 1 0 60.356648z m66.064688-250.630006a25.974791 25.974791 0 1 1 0-51.96027 25.980135 25.980135 0 1 1 0 51.96027z m13.580647 144.176122a36.038686 36.038686 0 1 1 72.082716-0.005345 36.038686 36.038686 0 0 1-72.082716 0.005345z m50.271374 198.643012a36.038686 36.038686 0 1 1 0-72.077371 36.038686 36.038686 0 0 1 0 72.077371z m114.625789-120.504856a23.660576 23.660576 0 1 1 0-47.321152 23.660576 23.660576 0 0 1 0 47.321152z m-12.37811-148.5587a36.038686 36.038686 0 1 1-0.005344-72.082716 36.038686 36.038686 0 0 1 0.005344 72.082716z"  /></svg>