<?xml version="1.0" standalone="no"?><!DOCTYPE svg PUBLIC "-//W3C//DTD SVG 1.1//EN" "http://www.w3.org/Graphics/SVG/1.1/DTD/svg11.dtd"><svg class="icon" width="200px" height="200.00px" viewBox="0 0 1024 1024" version="1.1" xmlns="http://www.w3.org/2000/svg"><path fill="#000000" d="M875.52 379.904q28.672 63.488 27.648 129.024t-21.504 130.048-55.808 126.464-75.264 118.272q-24.576 33.792-45.568 50.688t-40.96 22.016-39.936 3.072-42.496-6.144-48.64-6.656-57.856 2.56q-52.224 9.216-84.992 10.752t-57.856-11.264-48.64-43.008-58.368-84.48q-44.032-68.608-72.704-141.312t-35.84-140.288 11.264-125.44 68.608-97.792q52.224-41.984 112.128-50.176t115.2 10.24q21.504 8.192 45.568 20.992t54.784 12.8q15.36 0 30.72-4.608t29.696-10.752l28.672-12.288q14.336-6.144 28.672-8.192 35.84-6.144 70.144-5.12t64.512 11.776 55.296 34.816 43.52 64zM635.904 191.488q-22.528 13.312-50.176 18.944t-52.224 7.68q-28.672 3.072-57.344 2.048 7.168-24.576 18.432-49.152 10.24-20.48 27.136-43.52t43.52-40.448q18.432-12.288 46.08-17.408t54.272-7.168q30.72-2.048 62.464 0-5.12 24.576-16.384 48.128-10.24 20.48-28.16 42.496t-47.616 38.4z"  /></svg>