<?xml version="1.0" standalone="no"?><!DOCTYPE svg PUBLIC "-//W3C//DTD SVG 1.1//EN" "http://www.w3.org/Graphics/SVG/1.1/DTD/svg11.dtd"><svg class="icon" width="200px" height="200.00px" viewBox="0 0 1024 1024" version="1.1" xmlns="http://www.w3.org/2000/svg"><path fill="#000000" d="M727.04 377.2416v-3.072c0-57.1392 0-85.7088-16.1792-104.7552a67.584 67.584 0 0 0-7.4752-7.4752C684.4416 245.76 655.7696 245.76 598.6304 245.76h-3.072c-21.504 0-32.256 0-38.8096 4.4032a20.48 20.48 0 0 0-2.6624 2.048c-5.8368 5.12-9.3184 18.7392-16.384 45.9776-8.6016 33.3824-30.9248 70.4512-87.1424 70.4512-56.32 0-78.5408-37.0688-87.1424-70.4512-7.0656-27.2384-10.5472-40.8576-16.384-46.08a20.48 20.48 0 0 0-2.6624-2.048c-6.5536-4.3008-17.3056-4.3008-38.912-4.3008h-2.9696c-57.1392 0-85.7088 0-104.7552 16.1792a67.584 67.584 0 0 0-7.4752 7.4752c-16.1792 19.0464-16.1792 47.616-16.1792 104.7552V670.3104c0 57.1392 0 85.7088 16.1792 104.7552a67.584 67.584 0 0 0 7.4752 7.4752c19.0464 16.1792 47.616 16.1792 104.7552 16.1792h3.072c21.504 0 32.256 0 38.8096-4.4032a20.3776 20.3776 0 0 0 2.6624-2.048c5.8368-5.12 9.3184-18.7392 16.384-45.9776 8.6016-33.3824 30.9248-70.4512 87.1424-70.4512 56.32 0 78.5408 37.0688 87.1424 70.4512 7.0656 27.2384 10.5472 40.8576 16.384 46.08l2.6624 2.048c6.5536 4.3008 17.3056 4.3008 38.912 4.3008h2.9696c57.1392 0 85.8112 0 104.7552-16.1792a67.584 67.584 0 0 0 7.4752-7.4752c16.1792-19.0464 16.1792-47.616 16.1792-104.7552v-3.072c0-21.504 0-32.256 4.4032-38.8096a20.48 20.48 0 0 1 2.048-2.6624c5.12-5.8368 18.7392-9.3184 45.9776-16.384 33.3824-8.6016 70.4512-30.9248 70.4512-87.1424 0-56.32-37.0688-78.5408-70.4512-87.1424-27.2384-7.0656-40.8576-10.5472-46.08-16.384a20.48 20.48 0 0 1-2.048-2.6624c-4.3008-6.5536-4.3008-17.3056-4.3008-38.912z" /></svg>