<?xml version="1.0" standalone="no"?><!DOCTYPE svg PUBLIC "-//W3C//DTD SVG 1.1//EN" "http://www.w3.org/Graphics/SVG/1.1/DTD/svg11.dtd"><svg class="icon" width="200px" height="200.00px" viewBox="0 0 1024 1024" version="1.1" xmlns="http://www.w3.org/2000/svg"><path fill="#000000" d="M320.768 213.312h425.152V774.4H320.768z"  /><path fill="#000000" d="M807.616 0H259.072C222.08 0 192 28.736 192 64v896c0 35.264 30.08 64 67.072 64h548.544c36.992 0 67.072-28.736 67.072-64V64c0-35.264-30.08-64-67.072-64zM518.272 102.72h149.312a10.688 10.688 0 1 1 0 21.312H518.272a10.688 10.688 0 0 1 0-21.312z m-85.376 0h21.376a10.688 10.688 0 1 1 0 21.312h-21.376a10.688 10.688 0 0 1 0-21.312z m100.48 852.992a53.376 53.376 0 0 1 0-106.688 53.44 53.44 0 0 1 0 106.688z m255.232-160c0 11.776-9.6 21.376-21.312 21.376h-467.84a21.312 21.312 0 0 1-21.376-21.376V192c0-11.776 9.6-21.312 21.376-21.312h467.84c11.776 0 21.312 9.536 21.312 21.312v603.712z"  /><path fill="#000000" d="M533.312 870.4a32 32 0 1 0 0.064 64 32 32 0 0 0 0-64"  /></svg>