<?xml version="1.0" standalone="no"?><!DOCTYPE svg PUBLIC "-//W3C//DTD SVG 1.1//EN" "http://www.w3.org/Graphics/SVG/1.1/DTD/svg11.dtd"><svg class="icon" width="200px" height="200.00px" viewBox="0 0 1024 1024" version="1.1" xmlns="http://www.w3.org/2000/svg"><path fill="#000000" d="M97 153.472C97 109.03 133.063 73 177.548 73h648.986c44.486 0 80.548 36.029 80.548 80.472v558.71c0 44.443-36.062 80.472-80.548 80.472H211.712c-30.82 0-54.876 22.177-54.876 48.283 0 25.845 23.577 47.84 53.953 48.277l0.923 0.006h695.37c16.523 0 29.918 13.383 29.918 29.89 0 16.272-13.015 29.507-29.212 29.882l-0.706 0.008h-695.37C148.872 949 97 901.179 97 840.937c0-2.001 0.057-3.989 0.17-5.961a31.452 31.452 0 0 1-0.162-2.53L97 831.74V153.472z m669.699 326.489H237.384l-0.707 0.008c-16.197 0.375-29.211 13.61-29.211 29.881 0 16.343 13.128 29.622 29.423 29.886l0.495 0.004h529.315l0.706-0.008c16.197-0.375 29.211-13.61 29.211-29.882 0-16.507-13.394-29.89-29.917-29.89z m0-170.142H237.384l-0.707 0.008c-16.197 0.375-29.211 13.61-29.211 29.882 0 16.342 13.128 29.621 29.423 29.885l0.495 0.004h529.315l0.706-0.008c16.197-0.375 29.211-13.61 29.211-29.881 0-16.508-13.394-29.89-29.917-29.89z"  /></svg>