<?xml version="1.0" standalone="no"?><!DOCTYPE svg PUBLIC "-//W3C//DTD SVG 1.1//EN" "http://www.w3.org/Graphics/SVG/1.1/DTD/svg11.dtd"><svg class="icon" width="200px" height="200.00px" viewBox="0 0 1024 1024" version="1.1" xmlns="http://www.w3.org/2000/svg"><path fill="#000000" d="M617.685333 307.754667a41.344 41.344 0 0 1-0.384 1.621333q-11.690667 45.141333-37.333333 76.629333-14.848 18.304-43.648 40.106667-19.114667 14.506667-23.637333 24.789333l0.682666 1.066667q6.4 9.728 20.309334 20.522667 37.034667 28.757333 87.338666 36.650666 60.245333 9.386667 115.072-18.474666 69.717333-35.498667 122.922667-127.957334a42.666667 42.666667 0 0 1 75.264 2.432q34.133333 69.12 40.874667 157.781334 7.978667 104.021333-27.52 193.322666-42.88 107.904-142.592 174.506667-112.64 75.178667-289.365334 90.453333-71.936 6.186667-155.562666-13.482666-93.354667-21.930667-159.573334-67.84-82.432-57.130667-103.808-139.434667-24.32-93.866667 36.010667-203.989333 12.202667-24.576 79.829333-114.901334 0.298667-0.384 0.128-1.152-0.256-1.194667-1.237333-1.749333Q62.72 351.061333 44.416 289.408a42.666667 42.666667 0 0 1 56.832-51.669333q15.146667 6.101333 39.808-8.106667 38.229333-22.016 78.805333-81.664 41.898667-71.722667 119.594667-94.378667 70.613333-20.565333 142.634667 6.442667 73.045333 27.434667 111.573333 90.496 42.965333 70.4 24.021333 157.226667z m-96.853333-112.768q24.917333 40.874667 13.653333 93.781333-7.04 26.581333-20.693333 43.392-8.405333 10.368-29.013333 26.026667-22.698667 17.194667-33.024 29.354666-19.498667 23.04-24.533334 53.504-8.32 50.474667 54.144 98.901334 54.442667 42.24 126.421334 53.461333 87.552 13.738667 166.954666-26.666667 59.648-30.336 108.245334-88.789333 5.034667 24.490667 7.082666 51.456 6.485333 84.394667-21.76 155.306667-74.24 186.837333-359.978666 211.456-58.325333 5.034667-128.725334-11.52-77.568-18.218667-130.474666-54.869334-122.709333-85.077333-41.088-233.173333a42.538667 42.538667 0 0 0 1.621333-3.285333q6.016-13.610667 71.210667-100.608 23.466667-31.317333 15.317333-69.973334-8.021333-37.973333-41.429333-57.6-49.92-29.44-83.328-55.04 6.058667-2.986667 12.202666-6.528 55.68-32 107.733334-109.013333a42.581333 42.581333 0 0 0 1.621333-2.602667q24.832-43.178667 70.357333-56.448 43.306667-12.586667 88.746667 4.437334 45.525333 17.066667 68.693333 55.04z"  /><path fill="#000000" d="M773.973333 736.768l-0.042666 0.042667q-103.594667 86.314667-235.648 55.381333-52.48-12.245333-98.261334-41.856-43.733333-28.245333-69.418666-64.213333a42.666667 42.666667 0 0 1 69.461333-49.578667q16.213333 22.698667 46.250667 42.112 33.365333 21.546667 71.424 30.464 90.624 21.205333 161.536-37.845333l0.085333-0.042667a42.666667 42.666667 0 0 1 27.050667-9.898667h0.256a42.624 42.624 0 0 1 42.666666 42.112v0.554667a42.666667 42.666667 0 0 1-15.36 32.768z"  /><path fill="#000000" d="M405.333333 256q0 4.181333-0.853333 8.32-0.768 4.138667-2.389333 8.021333-1.621333 3.84-3.968 7.381334-2.304 3.456-5.290667 6.442666-2.986667 2.986667-6.442667 5.290667-3.498667 2.346667-7.381333 3.968-3.882667 1.621333-8.021333 2.432Q366.848 298.666667 362.666667 298.666667t-8.32-0.853334q-4.138667-0.768-8.021334-2.389333-3.84-1.621333-7.381333-3.968-3.456-2.304-6.442667-5.290667-2.986667-2.986667-5.290666-6.442666-2.346667-3.498667-3.968-7.381334-1.621333-3.882667-2.432-8.021333Q320 260.181333 320 256t0.853333-8.32q0.768-4.138667 2.389334-8.021333 1.621333-3.84 3.968-7.381334 2.304-3.456 5.290666-6.442666 2.986667-2.986667 6.442667-5.290667 3.498667-2.346667 7.381333-3.968 3.882667-1.621333 8.021334-2.432Q358.485333 213.333333 362.666667 213.333333t8.32 0.853334q4.138667 0.768 8.021333 2.389333 3.84 1.621333 7.381333 3.968 3.456 2.304 6.442667 5.290667 2.986667 2.986667 5.290667 6.442666 2.346667 3.498667 3.968 7.381334 1.621333 3.882667 2.432 8.021333 0.810667 4.138667 0.810666 8.32z"  /></svg>